<svg xmlns="http://www.w3.org/2000/svg" viewBox="0 0 512 512" role="img" aria-label="iSuei">
  <defs>
    <linearGradient id="bg" x1="0" y1="0" x2="0.6" y2="1">
      <stop offset="0%" stop-color="#ffffff"/>
      <stop offset="100%" stop-color="#fff7ed"/>
    </linearGradient>
    <linearGradient id="flame" x1="0.5" y1="0" x2="0.5" y2="1">
      <stop offset="0%" stop-color="#fde68a"/>
      <stop offset="35%" stop-color="#fb923c"/>
      <stop offset="75%" stop-color="#ea580c"/>
      <stop offset="100%" stop-color="#9a3412"/>
    </linearGradient>
    <linearGradient id="flameInner" x1="0.5" y1="0" x2="0.5" y2="1">
      <stop offset="0%" stop-color="#fef3c7"/>
      <stop offset="60%" stop-color="#fcd34d"/>
      <stop offset="100%" stop-color="#fb923c"/>
    </linearGradient>
    <linearGradient id="accent" x1="0" y1="0" x2="1" y2="0">
      <stop offset="0%" stop-color="#fb923c"/>
      <stop offset="100%" stop-color="#ea580c"/>
    </linearGradient>
    <filter id="ts" x="-10%" y="-10%" width="120%" height="120%">
      <feDropShadow dx="0" dy="4" stdDeviation="6" flood-color="#9a3412" flood-opacity="0.20"/>
    </filter>
    <filter id="ds">
      <feDropShadow dx="0" dy="5" stdDeviation="8" flood-color="#9a3412" flood-opacity="0.30"/>
    </filter>
  </defs>
  <rect width="512" height="512" rx="110" fill="url(#bg)"/>
  <rect x="6" y="6" width="500" height="500" rx="104" fill="none" stroke="#fed7aa" stroke-width="4"/>
  <ellipse cx="120" cy="100" rx="220" ry="120" fill="#ffffff" opacity="0.7"/>
  <g transform="translate(385, 75)" filter="url(#ds)">
    <path d="M 60 165 C 25 145, 5 110, 12 70 C 18 40, 35 18, 45 5 C 48 22, 56 35, 66 42 C 64 27, 70 12, 80 0 C 88 18, 100 38, 115 60 C 130 85, 132 115, 118 138 C 105 158, 80 168, 60 165 Z" fill="url(#flame)"/>
    <path d="M 60 140 C 40 122, 30 100, 38 75 C 45 60, 55 50, 60 45 C 62 56, 68 65, 75 70 C 78 60, 82 50, 88 42 C 95 60, 105 80, 105 100 C 103 122, 88 138, 75 142 C 68 144, 65 142, 60 140 Z" fill="url(#flameInner)" opacity="0.85"/>
    <ellipse cx="72" cy="105" rx="10" ry="22" fill="#fff7ed" opacity="0.8"/>
  </g>
  <text x="256" y="345" font-family="-apple-system, BlinkMacSystemFont, 'Segoe UI', Inter, system-ui, sans-serif" font-size="158" font-weight="900" fill="#ea580c" text-anchor="middle" letter-spacing="-8" filter="url(#ts)">iSuei</text>
  <rect x="148" y="386" width="216" height="14" rx="7" fill="url(#accent)"/>
  <text x="256" y="438" font-family="-apple-system, BlinkMacSystemFont, 'Segoe UI', Inter, system-ui, sans-serif" font-size="22" font-weight="700" fill="#c2410c" text-anchor="middle" letter-spacing="6" opacity="0.85">TRAIN &#183; TRACK &#183; WIN</text>
</svg>
